<svg width="20" height="12" viewBox="0 0 20 12" fill="none" xmlns="http://www.w3.org/2000/svg">
<path fill-rule="evenodd" clip-rule="evenodd" d="M3.5875 5.83432L6.05 8.2636C6.14211 8.34827 6.21599 8.45037 6.26723 8.56382C6.31847 8.67727 6.34602 8.79974 6.34824 8.92392C6.35046 9.0481 6.3273 9.17145 6.28015 9.28661C6.233 9.40177 6.16282 9.50638 6.0738 9.5942C5.98477 9.68202 5.87873 9.75126 5.762 9.79777C5.64526 9.84429 5.52023 9.86713 5.39435 9.86494C5.26847 9.86275 5.14433 9.83557 5.02933 9.78502C4.91433 9.73447 4.81083 9.66159 4.725 9.57072L0.6625 5.56303L0 4.90947L0.6625 4.25591L4.725 0.24822C4.90272 0.0848543 5.13778 -0.00408337 5.38065 0.000144088C5.62353 0.00437154 5.85526 0.101434 6.02703 0.270883C6.19879 0.440332 6.29718 0.668937 6.30147 0.908536C6.30575 1.14814 6.2156 1.38002 6.05 1.55534L3.5875 3.98462H15.9375C17.0149 3.98462 18.0483 4.40686 18.8101 5.15845C19.572 5.91003 20 6.9294 20 7.99231C20 9.05522 19.572 10.0746 18.8101 10.8262C18.0483 11.5778 17.0149 12 15.9375 12H13.4375C13.1889 12 12.9504 11.9026 12.7746 11.7291C12.5988 11.5557 12.5 11.3204 12.5 11.0751C12.5 10.8299 12.5988 10.5946 12.7746 10.4212C12.9504 10.2477 13.1889 10.1503 13.4375 10.1503H15.9375C16.5177 10.1503 17.0741 9.92294 17.4843 9.51824C17.8945 9.11354 18.125 8.56464 18.125 7.99231C18.125 7.41998 17.8945 6.87108 17.4843 6.46638C17.0741 6.06168 16.5177 5.83432 15.9375 5.83432H3.5875Z" fill="#8A8A8A"/>
</svg>
